<svg xmlns="http://www.w3.org/2000/svg" width="800" height="500" viewBox="0 0 800 500" role="img" aria-label="Marine Security Ghana website preview">
  <defs>
    <linearGradient id="bg" x1="0%" y1="0%" x2="100%" y2="100%">
      <stop offset="0%" stop-color="#0c1929"/>
      <stop offset="100%" stop-color="#1e3a5f"/>
    </linearGradient>
    <linearGradient id="hero" x1="0%" y1="0%" x2="100%" y2="0%">
      <stop offset="0%" stop-color="#1e40af"/>
      <stop offset="100%" stop-color="#2563eb"/>
    </linearGradient>
  </defs>
  <rect width="800" height="500" fill="url(#bg)"/>
  <rect x="0" y="0" width="800" height="36" fill="#111827"/>
  <circle cx="20" cy="18" r="6" fill="#ef4444"/>
  <circle cx="40" cy="18" r="6" fill="#f59e0b"/>
  <circle cx="60" cy="18" r="6" fill="#22c55e"/>
  <rect x="280" y="10" width="240" height="16" rx="8" fill="#1f2937"/>
  <text x="400" y="48" text-anchor="middle" fill="#93c5fd" font-family="Inter, Arial, sans-serif" font-size="13" font-weight="700" letter-spacing="2">MARINE SECURITY SERVICES</text>
  <text x="400" y="78" text-anchor="middle" fill="#ffffff" font-family="Inter, Arial, sans-serif" font-size="28" font-weight="800">Professional Security</text>
  <text x="400" y="108" text-anchor="middle" fill="#cbd5e1" font-family="Inter, Arial, sans-serif" font-size="16">Licensed Private Security in Ghana</text>
  <rect x="120" y="140" width="560" height="120" rx="12" fill="url(#hero)"/>
  <text x="400" y="210" text-anchor="middle" fill="#ffffff" font-family="Inter, Arial, sans-serif" font-size="18" font-weight="600">24/7 Protection · Manned Guarding · Mobile Patrol</text>
  <rect x="140" y="290" width="160" height="90" rx="10" fill="rgba(255,255,255,0.12)"/>
  <rect x="320" y="290" width="160" height="90" rx="10" fill="rgba(255,255,255,0.12)"/>
  <rect x="500" y="290" width="160" height="90" rx="10" fill="rgba(255,255,255,0.12)"/>
  <text x="400" y="430" text-anchor="middle" fill="#64748b" font-family="Inter, Arial, sans-serif" font-size="14">marinesecuritygh.com</text>
  <rect x="310" y="450" width="180" height="36" rx="8" fill="#2563eb"/>
  <text x="400" y="473" text-anchor="middle" fill="#ffffff" font-family="Inter, Arial, sans-serif" font-size="14" font-weight="700">Request a Quote</text>
</svg>
